<svg id="Capa_1" enable-background="new 0 0 512 512" height="512" viewBox="0 0 512 512" width="512" xmlns="http://www.w3.org/2000/svg"><g><path d="m441 15c0-8.284-6.716-15-15-15h-340c-8.284 0-15 6.716-15 15v150l20.894 10h331.053l18.053-10z" fill="#3bc9ea"/><path d="m441 15v150l-18.05 10h-166.95v-175h170c8.28 0 15 6.72 15 15z" fill="#13b8e5"/><path d="m71 165v332c0 8.284 6.716 15 15 15h340c8.284 0 15-6.716 15-15v-332z" fill="#f5f2f1"/><path d="m441 165v332c0 8.28-6.72 15-15 15h-170v-347z" fill="#e8e1de"/><path d="m331 256h-150c-8.284 0-15-6.716-15-15v-150c0-8.284 6.716-15 15-15h150c8.284 0 15 6.716 15 15v150c0 8.284-6.716 15-15 15z" fill="#e8e1de"/><path d="m346 91v150c0 8.28-6.72 15-15 15h-75v-180h75c8.28 0 15 6.72 15 15z" fill="#dbd1cc"/><path d="m316 106v120l-5.5-.92c-15.809-52.835-93.222-52.734-109 0l-5.5.92v-120z" fill="#607881"/><path d="m316 106v120l-5.5-.92c-7.9-26.41-31.2-39.59-54.5-39.59v-79.49z" fill="#55696e"/><circle cx="256" cy="150.5" fill="#ffddce" r="30"/><path d="m286 150.5c0 16.57-13.43 30-30 30v-60c16.57 0 30 13.43 30 30z" fill="#ffccbd"/><path d="m315.96 226h-119.92c6.81-26.18 30.63-45.5 58.93-45.5h2.06c28.3 0 52.12 19.32 58.93 45.5z" fill="#f47160"/><path d="m315.96 226h-59.96v-45.5h1.03c28.3 0 52.12 19.32 58.93 45.5z" fill="#fc5832"/><path d="m226 331h60c8.284 0 15-6.716 15-15s-6.716-15-15-15h-60c-8.284 0-15 6.716-15 15s6.716 15 15 15z" fill="#dbd1cc"/><path d="m301 316c0 8.28-6.72 15-15 15h-30v-30h30c8.28 0 15 6.72 15 15z" fill="#c6bbb6"/><path d="m136 391h240c8.284 0 15-6.716 15-15s-6.716-15-15-15h-240c-8.284 0-15 6.716-15 15s6.716 15 15 15z" fill="#dbd1cc"/><path d="m391 376c0 8.28-6.72 15-15 15h-120v-30h120c8.28 0 15 6.72 15 15z" fill="#c6bbb6"/><path d="m376 421h-240c-8.284 0-15 6.716-15 15s6.716 15 15 15h240c8.284 0 15-6.716 15-15s-6.716-15-15-15z" fill="#dbd1cc"/><path d="m391 436c0 8.28-6.72 15-15 15h-120v-30h120c8.28 0 15 6.72 15 15z" fill="#c6bbb6"/></g></svg>