<svg id="Layer_1" enable-background="new 0 0 511.618 511.618" height="512" viewBox="0 0 511.618 511.618" width="512" xmlns="http://www.w3.org/2000/svg"><g><g><path d="m510.517 254.708c0 61.544-21.827 117.989-58.163 162.018-46.717 56.608-117.417 81.193-196.545 81.193-140.671 0-228.335-102.539-228.335-243.21 0-112.281 46.28-207.594 147.139-241.492 25.501-8.572 52.806-13.217 81.196-13.217 140.671 0 254.708 114.036 254.708 254.708z" fill="#f8e000"/></g><g><path d="m415.783 69.439h-197.906c-14.063 0-25.463-11.4-25.463-25.463v-7.164c0-9.507-6.853-17.609-16.072-19.263-2.002-.359-2.963-2.662-1.704-4.26l.079-.1c-100.912 33.868-173.615 129.2-173.615 241.519 0 81.062 37.873 153.274 96.883 199.922 2.924 1.618 61.678 54.785 157.824 54.785 28.744 0 56.365-4.782 82.139-13.56h.055c42.598-14.517 82.577-40.978 113.642-78.299v-312.242c0-9.073-3.473-17.792-9.667-24.422-.07-.075-.14-.15-.21-.225-6.725-7.181-16.146-11.228-25.985-11.228zm-240.66 0h-4.604c-4.837 0-8.759-3.922-8.759-8.759v-23.545c0-5.757 4.264-10.796 9.995-11.335 6.576-.619 12.128 4.56 12.128 11.011v23.869c-.001 4.837-3.923 8.759-8.76 8.759z" fill="#ffc305"/></g><g><g><path d="m430.739 431.536h-228.728v-346.334h172.452 56.276v69.721z" fill="#2d56a1"/></g><g><path d="m206.567 423.374v-338.172h-97.016v394.999h321.188v-56.827z" fill="#1a396b"/></g><g><path d="m398.266 458.868v-262.73l-47.876-28.442-31.148-51.077h-147.187v342.249z" fill="#6ee1ff"/></g><g><path d="m358.993 413.838c-.012-.764-.036-1.53-.072-2.299-1.733-36.588-32.09-65.885-68.716-66.388-38.986-.535-70.757 30.907-70.757 69.77 0 3.945.328 7.813.959 11.578 2.325 13.882-8.097 26.601-22.172 26.601-12.45 0-22.542-10.092-22.542-22.542v-44.167c0-7.762 6.293-14.055 14.055-14.055h28.96v-21.329h-28.96c-7.762 0-14.055-6.293-14.055-14.055v-3.81c0-7.762 6.293-14.055 14.055-14.055h159.067v-21.329h-159.068c-7.762 0-14.055-6.293-14.055-14.055v-1.678c0-7.762 6.293-14.055 14.055-14.055h159.067v-21.329h-159.067c-7.762 0-14.055-6.292-14.055-14.055 0-7.762 6.293-14.055 14.055-14.055h29.701v-21.329h-29.701c-7.762 0-14.055-6.292-14.055-14.055v-66.531h-98.613v395h321.188v-58.516h-.044c-21.679 0-38.901-17.586-39.23-39.262z" fill="#05cdff"/></g><g><path d="m398.76 196.138h-79.518v-79.519z" fill="#fff"/></g><g><circle cx="289.224" cy="396.791" fill="#ff5551" r="69.777"/></g><g><path d="m239.797 426.826c0-.321 0-.642.107-.963l21.301-69.363c.857-2.569 3.961-3.854 7.172-3.854s6.423 1.285 7.279 3.854l21.195 69.363c.107.321.214.643.214.963 0 2.676-3.961 4.71-7.172 4.71-1.819 0-3.318-.642-3.853-2.355l-4.389-15.2h-26.439l-4.389 15.2c-.535 1.713-2.034 2.355-3.961 2.355-3.105 0-7.065-1.926-7.065-4.71zm39.284-21.943-10.704-36.716-10.704 36.716z" fill="#fff"/></g><g><path d="m334.153 378.519h-29.428c-2.945 0-5.332-2.388-5.332-5.332 0-2.945 2.388-5.332 5.332-5.332h29.428c2.945 0 5.332 2.388 5.332 5.332s-2.387 5.332-5.332 5.332z" fill="#fff"/></g><g><path d="m319.439 393.233c-2.945 0-5.332-2.388-5.332-5.332v-29.428c0-2.945 2.388-5.332 5.332-5.332 2.945 0 5.332 2.388 5.332 5.332v29.428c0 2.945-2.387 5.332-5.332 5.332z" fill="#fff"/></g><g><g><path d="m121.506 185.473h97.942v21.329h-97.942z" fill="#fff"/></g></g><g><g><path d="m121.506 234.911h227.308v21.329h-227.308z" fill="#fff"/></g></g><g><g><path d="m121.506 286.028h227.308v21.329h-227.308z" fill="#fff"/></g></g><g><g><path d="m121.506 339.276h97.201v21.329h-97.201z" fill="#fff"/></g></g><g><path d="m157.303 153.585c-7.833 0-14.205-6.372-14.205-14.204l.024-54.179h8.532l-.024 54.179c0 3.128 2.545 5.673 5.673 5.673s5.673-2.545 5.673-5.673v-86.807c0-6.099-4.962-11.061-11.061-11.061s-11.061 4.962-11.061 11.061v32.627h-8.532v-32.627c0-10.804 8.789-19.593 19.593-19.593s19.593 8.789 19.593 19.593v86.806c-.001 7.833-6.373 14.205-14.205 14.205z" fill="#fc5954"/></g></g></g></svg>