<svg height="512" viewBox="0 0 64 64" width="512" xmlns="http://www.w3.org/2000/svg"><path d="m50 61h-44v-54h52v46z" fill="#7fcac9"/><path d="m6 7h52v6h-52z" fill="#195c85"/><path d="m52 2h-40a3 3 0 0 0 -3 3v5h2v-5a1 1 0 0 1 2 0v5h2v-5a2.991 2.991 0 0 0 -.176-1h1.176a1 1 0 0 1 1 1v5h2v-5a2.966 2.966 0 0 0 -.184-1h1.184a1 1 0 0 1 1 1v5h2v-5a2.966 2.966 0 0 0 -.184-1h1.184a1 1 0 0 1 1 1v5h2v-5a2.966 2.966 0 0 0 -.184-1h1.184a1 1 0 0 1 1 1v5h2v-5a2.966 2.966 0 0 0 -.184-1h1.184a1 1 0 0 1 1 1v5h2v-5a2.966 2.966 0 0 0 -.184-1h1.184a1 1 0 0 1 1 1v5h2v-5a2.966 2.966 0 0 0 -.184-1h1.184a1 1 0 0 1 1 1v5h2v-5a2.966 2.966 0 0 0 -.184-1h1.184a1 1 0 0 1 1 1v5h2v-5a2.966 2.966 0 0 0 -.184-1h1.184a1 1 0 0 1 1 1v5h2v-5a2.966 2.966 0 0 0 -.184-1h1.184a1 1 0 0 1 1 1v5h2v-5a3 3 0 0 0 -3-3z" fill="#f9bb4b"/><path d="m50 61v-8h8z" fill="#548985"/><g fill="#fcf05a"><circle cx="12" cy="18" r="2"/><circle cx="22" cy="18" r="2"/><circle cx="32" cy="18" r="2"/><circle cx="42" cy="18" r="2"/><circle cx="52" cy="18" r="2"/><path d="m14 33a1 1 0 0 0 1-1v-3h3v3a1 1 0 0 0 2 0v-8a1 1 0 0 0 -2 0v3h-3v-3a1 1 0 0 0 -2 0v8a1 1 0 0 0 1 1z"/><path d="m29 32v-8a1 1 0 0 0 -1-1h-5a1 1 0 0 0 -1 1v8a1 1 0 0 0 1 1h5a1 1 0 0 0 1-1zm-2-1h-3v-6h3z"/><path d="m36 30a1 1 0 0 0 .929-.629l1.748-4.371h.323v7a1 1 0 0 0 2 0v-8a1 1 0 0 0 -1-1h-2a1 1 0 0 0 -.929.629l-1.071 2.679-1.071-2.679a1 1 0 0 0 -.929-.629h-2a1 1 0 0 0 -1 1v8a1 1 0 0 0 2 0v-7h.323l1.748 4.371a1 1 0 0 0 .929.629z"/><path d="m31 35h-5a1 1 0 0 0 -1 1v8a1 1 0 0 0 1 1h5a1 1 0 0 0 1-1v-8a1 1 0 0 0 -1-1zm-1 8h-3v-6h3z"/><path d="m22.242 35.03a1 1 0 0 0 -1.212.728l-1.25 5-.851-2.128a1 1 0 0 0 -1.858 0l-.851 2.128-1.25-5a1 1 0 0 0 -1.94.484l2 8a1 1 0 0 0 .9.756 1.014 1.014 0 0 0 1-.627l1.07-2.679 1.071 2.679a1 1 0 0 0 .929.629h.067a1 1 0 0 0 .9-.756l2-8a1 1 0 0 0 -.725-1.214z"/><path d="m49 29a1 1 0 0 0 1-1v-4a1 1 0 0 0 -1-1h-5a1 1 0 0 0 -1 1v8a1 1 0 0 0 1 1h5a1 1 0 0 0 0-2h-4v-2zm-4-4h3v2h-3z"/><path d="m41 43h-1.5l-1.5-2h2a1 1 0 0 0 1-1v-4a1 1 0 0 0 -1-1h-5a1 1 0 0 0 -1 1v8a1 1 0 0 0 2 0v-2.333l2.2 2.933a1 1 0 0 0 .8.4h2a1 1 0 0 0 0-2zm-5-6h3v2h-3z"/><path d="m49.781 35.375a1 1 0 0 0 -1.406-.156l-3.375 2.7v-1.919a1 1 0 0 0 -2 0v8a1 1 0 0 0 2 0v-1.919l3.375 2.7a1 1 0 1 0 1.25-1.562l-4.025-3.219 4.024-3.219a1 1 0 0 0 .157-1.406z"/></g><path d="m12 53a1 1 0 0 1 -.2-1.98 236.81 236.81 0 0 1 40.2-4.02 1 1 0 0 1 0 2 234.772 234.772 0 0 0 -39.8 3.98.955.955 0 0 1 -.2.02z" fill="#dd3e46"/></svg>